<?xml version="1.0" encoding="UTF-8"?>
<svg version="1.1" xmlns="http://www.w3.org/2000/svg" width="500" height="500">
<path d="M0 0 C2.32307972 1.64544771 2.32307972 1.64544771 5.34765625 1.390625 C5.34765625 0.730625 5.34765625 0.070625 5.34765625 -0.609375 C11.97265625 -4.609375 11.97265625 -4.609375 15.34765625 -4.609375 C15.34765625 -5.269375 15.34765625 -5.929375 15.34765625 -6.609375 C34.62412512 -13.88218193 55.02407148 -15.10489222 74.1640625 -6.6484375 C74.88464844 -6.30554688 75.60523438 -5.96265625 76.34765625 -5.609375 C77.47494141 -5.09503906 77.47494141 -5.09503906 78.625 -4.5703125 C82.10450766 -2.9217935 84.70693643 -1.46006031 87.34765625 1.390625 C91.38657189 -0.53089145 95.06056846 -2.94321936 98.8125 -5.3671875 C101.57694382 -6.72172238 103.31204416 -6.85917492 106.34765625 -6.609375 C106.34765625 -7.269375 106.34765625 -7.929375 106.34765625 -8.609375 C124.62065441 -14.20746114 143.52142327 -13.87682314 161.34765625 -6.609375 C164.34707316 -4.86378193 167.18653398 -3.01944147 170.0078125 -1 C172.46709933 0.7312273 172.46709933 0.7312273 176.34765625 0.390625 C178.81100998 -1.00576592 178.81100998 -1.00576592 181.34765625 -2.859375 C196.02730657 -12.49654597 213.86957479 -14.2047934 230.87890625 -11.36328125 C243.74907335 -8.56604899 257.52738409 -2.82232172 266.34765625 7.390625 C266.34765625 8.050625 266.34765625 8.710625 266.34765625 9.390625 C267.33765625 9.720625 268.32765625 10.050625 269.34765625 10.390625 C269.34765625 11.050625 269.34765625 11.710625 269.34765625 12.390625 C270.00765625 12.390625 270.66765625 12.390625 271.34765625 12.390625 C284.27890064 30.49996508 288.49251381 49.86538462 284.92871094 71.99169922 C283.04073577 80.24589865 279.50127056 88.03784392 275.34765625 95.390625 C274.68765625 95.390625 274.02765625 95.390625 273.34765625 95.390625 C273.05890625 95.968125 272.77015625 96.545625 272.47265625 97.140625 C271.43098958 99.22395833 270.38932292 101.30729167 269.34765625 103.390625 C268.68765625 103.390625 268.02765625 103.390625 267.34765625 103.390625 C267.34765625 104.050625 267.34765625 104.710625 267.34765625 105.390625 C252.18592652 119.23144646 233.49257209 126.27493115 213.02734375 125.609375 C201.17686444 124.90488791 188.80649771 121.31791986 178.99609375 114.50390625 C177.18524763 113.28094145 175.31709106 112.33234165 173.34765625 111.390625 C173.01765625 112.050625 172.68765625 112.710625 172.34765625 113.390625 C169.88757179 114.7849689 167.4430191 116.0795226 164.91015625 117.328125 C164.1838501 117.687854 163.45754395 118.04758301 162.70922852 118.41821289 C145.87177259 126.587213 127.27553865 127.7776089 109.34765625 122.390625 C102.03490278 119.70547333 95.65802049 115.92473856 89.34765625 111.390625 C86.40815994 112.79070112 83.75669103 114.42167132 81.03515625 116.203125 C66.23422288 125.16274045 47.4922874 128.04973873 30.66015625 124.0078125 C29.89703125 123.80414063 29.13390625 123.60046875 28.34765625 123.390625 C27.17203125 123.11605469 27.17203125 123.11605469 25.97265625 122.8359375 C17.4191392 120.61531288 9.66963565 116.2719446 2.34765625 111.390625 C1.87714844 111.7515625 1.40664062 112.1125 0.921875 112.484375 C-0.01205078 113.18046875 -0.01205078 113.18046875 -0.96484375 113.890625 C-1.88716797 114.58671875 -1.88716797 114.58671875 -2.828125 115.296875 C-4.65234375 116.390625 -4.65234375 116.390625 -7.65234375 116.390625 C-7.65234375 117.050625 -7.65234375 117.710625 -7.65234375 118.390625 C-10.5255139 119.37545376 -13.4006712 120.3536243 -16.27734375 121.328125 C-17.08558594 121.60591797 -17.89382812 121.88371094 -18.7265625 122.16992188 C-30.95240402 126.29490092 -45.19410682 127.32262669 -57.65234375 123.390625 C-59.34230469 122.93042969 -59.34230469 122.93042969 -61.06640625 122.4609375 C-70.4506731 119.68961633 -78.16579447 115.81668501 -85.65234375 109.390625 C-85.65234375 108.730625 -85.65234375 108.070625 -85.65234375 107.390625 C-86.31234375 107.390625 -86.97234375 107.390625 -87.65234375 107.390625 C-87.65234375 106.730625 -87.65234375 106.070625 -87.65234375 105.390625 C-88.25691406 105.12378906 -88.86148438 104.85695313 -89.484375 104.58203125 C-95.84484143 101.08663979 -99.12276874 92.98856158 -102.46484375 86.828125 C-102.8621167 86.10810303 -103.25938965 85.38808105 -103.66870117 84.64624023 C-106.02372914 80.19049265 -107.15861969 76.47534167 -107.65234375 71.390625 C-107.98234375 70.730625 -108.31234375 70.070625 -108.65234375 69.390625 C-109.62016937 56.22686168 -110.07330993 42.63726027 -104.65234375 30.390625 C-103.98408819 28.72459477 -103.31694528 27.05811624 -102.65234375 25.390625 C-101.99234375 25.390625 -101.33234375 25.390625 -100.65234375 25.390625 C-100.37390625 24.215 -100.37390625 24.215 -100.08984375 23.015625 C-98.08506885 17.96010569 -95.14554803 13.5594018 -91.65234375 9.390625 C-90.99234375 9.390625 -90.33234375 9.390625 -89.65234375 9.390625 C-89.32234375 8.400625 -88.99234375 7.410625 -88.65234375 6.390625 C-87.99234375 6.390625 -87.33234375 6.390625 -86.65234375 6.390625 C-86.32234375 5.400625 -85.99234375 4.410625 -85.65234375 3.390625 C-81.50816754 0.42702175 -77.06275621 -2.0641136 -72.65234375 -4.609375 C-71.92015625 -5.03992188 -71.18796875 -5.47046875 -70.43359375 -5.9140625 C-48.47392674 -17.91743981 -19.89202336 -13.62388938 0 0 Z M-74.65234375 16.390625 C-74.65234375 17.050625 -74.65234375 17.710625 -74.65234375 18.390625 C-75.23113281 18.62136719 -75.80992188 18.85210937 -76.40625 19.08984375 C-84.72356876 23.90665618 -89.28252055 35.54464702 -91.65234375 44.390625 C-94.22821839 59.33747652 -92.13162275 73.66064657 -83.65234375 86.390625 C-75.70608316 97.34401247 -64.93472737 105.22560032 -51.65234375 108.390625 C-47.99442208 108.78755856 -44.39118247 108.81154734 -40.71484375 108.765625 C-39.78994141 108.77722656 -38.86503906 108.78882813 -37.91210938 108.80078125 C-29.16975227 108.76402292 -21.4447119 106.9714331 -14.02734375 102.203125 C-13.18945312 101.67332031 -12.3515625 101.14351563 -11.48828125 100.59765625 C-10.88242188 100.19933594 -10.2765625 99.80101562 -9.65234375 99.390625 C-10.99587857 95.79715148 -12.6359262 92.62442866 -14.58984375 89.328125 C-17.42015181 84.25428006 -18.90802595 79.39110532 -20.109375 73.7265625 C-20.42307613 71.44367515 -20.42307613 71.44367515 -21.65234375 70.390625 C-21.90912651 66.25145958 -21.83759162 62.09928828 -21.83984375 57.953125 C-21.85208984 56.80134766 -21.86433594 55.64957031 -21.87695312 54.46289062 C-21.89401151 44.43824353 -20.93979501 36.04182351 -16.21484375 27.140625 C-15.31958984 25.43132812 -15.31958984 25.43132812 -14.40625 23.6875 C-13.82746094 22.59953125 -13.24867188 21.5115625 -12.65234375 20.390625 C-11.64687556 18.39336845 -10.64505119 16.39425469 -9.65234375 14.390625 C-20.99908666 4.46222496 -33.75683282 3.56628654 -48.22705078 4.1953125 C-58.21971544 5.00003685 -66.53036092 10.97596978 -74.65234375 16.390625 Z M14.34765625 14.390625 C15.33765625 14.885625 15.33765625 14.885625 16.34765625 15.390625 C17.01432292 17.390625 17.68098958 19.390625 18.34765625 21.390625 C19.12492373 22.89813665 19.91824483 24.39742093 20.72265625 25.890625 C28.52945168 41.52738142 29.99209889 59.46007612 25.4140625 76.37890625 C23.7744383 81.00949329 21.73959568 85.412197 19.5546875 89.80859375 C18.20649439 92.21755432 18.20649439 92.21755432 18.34765625 94.390625 C17.68765625 94.390625 17.02765625 94.390625 16.34765625 94.390625 C15.68765625 96.040625 15.02765625 97.690625 14.34765625 99.390625 C16.55349865 100.52074152 18.76210652 101.64478288 20.97265625 102.765625 C21.59011719 103.08273437 22.20757812 103.39984375 22.84375 103.7265625 C30.42175906 107.55545129 36.6219427 108.73175917 45.09765625 108.703125 C46.5053125 108.72729492 46.5053125 108.72729492 47.94140625 108.75195312 C56.76598018 108.75804744 64.48092102 107.01924051 71.97265625 102.203125 C72.81054688 101.67332031 73.6484375 101.14351563 74.51171875 100.59765625 C75.11757812 100.19933594 75.7234375 99.80101562 76.34765625 99.390625 C74.37323303 94.14514241 71.7216947 89.2975572 69.1015625 84.3515625 C64.87485877 75.40920174 63.79014604 66.50606739 63.84765625 56.703125 C63.85337646 55.56407715 63.85909668 54.4250293 63.86499023 53.25146484 C64.16991001 38.77342208 68.40622324 27.47441932 76.34765625 15.390625 C70.15484969 8.42371762 62.29568239 5.05058244 53.00610352 4.16821289 C37.71493312 3.45324112 27.26300049 5.98584567 14.34765625 14.390625 Z M110.34765625 8.390625 C109.54457031 8.7721875 108.74148438 9.15375 107.9140625 9.546875 C106.0395361 10.45652386 104.18994489 11.41734043 102.34765625 12.390625 C102.34765625 13.050625 102.34765625 13.710625 102.34765625 14.390625 C101.35765625 14.885625 101.35765625 14.885625 100.34765625 15.390625 C101.01861328 16.32068359 101.01861328 16.32068359 101.703125 17.26953125 C112.60372869 33.23694007 115.37176428 51.78876212 112.59765625 70.765625 C110.88816928 79.55048861 107.36631172 86.78759936 102.51953125 94.26171875 C101.10654263 96.42362638 101.10654263 96.42362638 101.34765625 99.390625 C109.77305278 107.36769768 120.49266961 108.84943648 131.59765625 108.890625 C132.50765381 108.89674805 133.41765137 108.90287109 134.35522461 108.90917969 C142.95065796 108.75036541 150.68331261 106.88913162 157.97265625 102.203125 C158.81054688 101.67332031 159.6484375 101.14351563 160.51171875 100.59765625 C161.11757813 100.19933594 161.7234375 99.80101562 162.34765625 99.390625 C160.37323303 94.14514241 157.7216947 89.2975572 155.1015625 84.3515625 C150.87470771 75.40888214 149.79086427 66.50629412 149.84765625 56.703125 C149.85265137 55.56552734 149.85764648 54.42792969 149.86279297 53.25585938 C150.12370435 40.58096428 152.88185051 29.96604284 160.2109375 19.40625 C161.67513804 17.19561231 161.67513804 17.19561231 161.34765625 13.390625 C154.37167425 6.414643 143.57854652 4.17836986 134.09082031 4.01074219 C133.24745117 4.01235352 132.40408203 4.01396484 131.53515625 4.015625 C130.6544043 4.01723633 129.77365234 4.01884766 128.86621094 4.02050781 C122.04489143 4.14883216 116.4724541 5.28095062 110.34765625 8.390625 Z M186.34765625 14.390625 C187.00765625 16.040625 187.66765625 17.690625 188.34765625 19.390625 C189.00765625 19.390625 189.66765625 19.390625 190.34765625 19.390625 C190.59515625 20.195 190.84265625 20.999375 191.09765625 21.828125 C192.04063502 24.5156145 193.04672277 26.85207362 194.28515625 29.390625 C201.52903044 45.64186336 201.39196276 64.78128622 195.34765625 81.390625 C193.50409678 85.54262522 191.3410245 89.49205644 189.0546875 93.4140625 C187.26630347 96.30528506 187.26630347 96.30528506 186.34765625 99.390625 C187.79629905 100.34303059 189.25733234 101.27658942 190.72265625 102.203125 C191.53476562 102.72519531 192.346875 103.24726563 193.18359375 103.78515625 C200.92975671 107.71561671 208.47356453 108.95092266 217.09765625 108.890625 C218.53564575 108.88204468 218.53564575 108.88204468 220.00268555 108.87329102 C232.48279711 108.56162927 241.99059955 104.74237809 251.34765625 96.390625 C252.43025071 95.55633202 253.51350923 94.72289948 254.59765625 93.890625 C263.58125637 85.7237158 269.03318406 73.21167578 269.68359375 61.12890625 C270.02022677 44.69275301 266.06667992 31.38521789 254.59765625 19.140625 C242.97239228 8.23076189 230.44636771 3.75564942 214.71777344 3.91772461 C203.62442958 4.30550823 195.17004157 7.70699976 186.34765625 14.390625 Z M88.34765625 26.390625 C80.31003551 38.84234894 76.96587084 53.33233562 80.11328125 67.9453125 C81.9064491 74.10754803 84.26221129 79.77070739 87.34765625 85.390625 C89.80343319 84.41447936 91.10750976 83.76889497 92.54296875 81.5078125 C98.6015987 66.89582262 100.30926879 52.33086046 94.34765625 37.390625 C92.74167384 33.69446847 91.07045109 30.03368919 89.34765625 26.390625 C89.01765625 26.390625 88.68765625 26.390625 88.34765625 26.390625 Z M2.34765625 27.390625 C-5.79644736 38.1524762 -8.12739422 51.67974718 -6.30859375 64.88671875 C-4.67934009 72.72071342 -1.77757638 79.56265375 2.34765625 86.390625 C7.03357303 80.53322902 9.54953763 75.83973209 10.34765625 68.390625 C10.87359375 66.7509375 10.87359375 66.7509375 11.41015625 65.078125 C14.38304507 53.38476232 11.41959704 40.63702508 5.34765625 30.390625 C4.37374048 29.36520407 3.37937766 28.35786382 2.34765625 27.390625 Z M173.34765625 27.390625 C165.84452498 39.80960089 162.76091945 54.35564662 166.09765625 68.765625 C169.01702665 77.41387378 169.01702665 77.41387378 173.34765625 85.390625 C174.00765625 85.390625 174.66765625 85.390625 175.34765625 85.390625 C182.6795035 72.22177314 186.50604406 59.28622904 182.66015625 44.453125 C182.48516602 43.76089844 182.31017578 43.06867188 182.12988281 42.35546875 C180.66093344 36.87959466 178.54065156 32.10160168 175.34765625 27.390625 C174.68765625 27.390625 174.02765625 27.390625 173.34765625 27.390625 Z " fill="#FCFCFC" transform="translate(158.65234375,187.609375)"/>
<path d="M0 0 C3.32901247 2.21934164 3.75023244 3.34683329 5 7 C5.66 7 6.32 7 7 7 C7 8.32 7 9.64 7 11 C6.34 11 5.68 11 5 11 C4.16151196 9.54462432 3.32936066 8.08559627 2.5 6.625 C1.80390625 5.40683594 1.80390625 5.40683594 1.09375 4.1640625 C0 2 0 2 0 0 Z " fill="#F5F5F5" transform="translate(144,276)"/>
<path d="M0 0 C0.99 0.33 1.98 0.66 3 1 C4.6875 4.5625 4.6875 4.5625 6 8 C5.01 8.495 5.01 8.495 4 9 C3.71125 8.38125 3.4225 7.7625 3.125 7.125 C2.06279958 4.86674235 2.06279958 4.86674235 0 3 C0 2.01 0 1.02 0 0 Z " fill="#F3F3F3" transform="translate(156,267)"/>
</svg>
