<?xml version="1.0" standalone="no"?>
<!DOCTYPE svg PUBLIC "-//W3C//DTD SVG 20010904//EN"
 "http://www.w3.org/TR/2001/REC-SVG-20010904/DTD/svg10.dtd">
<svg version="1.0" xmlns="http://www.w3.org/2000/svg"
 width="500.000000pt" height="500.000000pt" viewBox="0 0 500.000000 500.000000"
 preserveAspectRatio="xMidYMid meet">

<g transform="translate(0.000000,500.000000) scale(0.100000,-0.100000)"
fill="#000000" stroke="none">
<path d="M1060 3229 c-72 -10 -206 -67 -269 -114 -126 -92 -230 -246 -267
-395 -25 -99 -16 -292 19 -388 70 -196 220 -346 419 -420 67 -25 85 -27 223
-27 134 0 157 3 215 24 69 26 140 62 179 93 13 10 27 18 32 18 4 0 37 -18 72
-40 110 -69 193 -93 339 -98 110 -3 138 -1 200 18 81 24 179 71 221 106 l27
23 56 -39 c54 -37 145 -77 229 -99 72 -19 254 -14 331 10 70 21 167 67 217
103 25 18 30 19 50 6 12 -7 42 -26 67 -42 25 -15 85 -42 133 -58 79 -27 102
-30 209 -30 102 0 131 4 196 26 338 113 528 424 471 773 -37 236 -219 448
-451 525 -192 65 -423 36 -589 -74 l-57 -37 -59 38 c-132 83 -266 116 -425
105 -47 -4 -110 -14 -140 -22 -56 -17 -208 -93 -208 -105 0 -22 -36 -13 -87
20 -125 84 -265 119 -425 107 -126 -9 -231 -46 -334 -117 l-40 -27 -61 38
c-149 95 -307 127 -493 99z m290 -171 c66 -24 150 -68 150 -79 0 -5 -15 -32
-33 -61 -102 -164 -130 -346 -82 -533 17 -65 66 -173 99 -218 21 -29 21 -29 1
-44 -33 -25 -136 -69 -194 -83 -82 -19 -211 -8 -294 25 -197 80 -323 253 -335
461 -6 109 7 172 54 269 60 123 177 224 309 268 88 29 237 27 325 -5z m845 5
c61 -19 137 -57 153 -75 9 -11 6 -22 -12 -49 -79 -115 -110 -224 -109 -384 0
-144 19 -219 88 -339 51 -90 52 -87 -43 -133 -107 -51 -235 -67 -342 -42 -57
13 -190 76 -196 93 -3 8 6 30 20 50 73 109 106 223 107 373 0 149 -34 264
-118 395 -17 27 -17 28 7 45 121 85 299 111 445 66z m871 -4 c34 -11 82 -33
109 -50 45 -29 46 -30 31 -52 -36 -49 -77 -141 -101 -223 -52 -180 -23 -374
83 -543 38 -62 39 -60 -63 -109 -134 -65 -281 -69 -418 -12 -42 17 -87 40
-100 50 -22 18 -22 19 -4 47 43 66 96 193 106 254 31 186 -8 391 -99 519 -26
37 -26 41 14 68 113 77 294 98 442 51z m861 -1 c237 -75 391 -326 354 -575
-31 -212 -184 -381 -396 -439 -64 -18 -185 -18 -250 0 -62 16 -174 72 -181 90
-3 7 13 44 36 82 67 115 85 187 85 344 -1 159 -18 229 -90 347 l-44 74 38 25
c121 80 298 100 448 52z m-2251 -308 c35 -88 44 -239 19 -325 -18 -64 -58
-150 -74 -160 -12 -7 -51 53 -74 115 -51 137 -33 324 44 449 l21 35 19 -25
c10 -13 30 -53 45 -89z m828 66 c57 -97 80 -251 55 -368 -12 -55 -48 -143 -73
-179 -14 -20 -15 -20 -41 25 -63 107 -85 294 -50 411 18 58 65 155 76 155 4 0
19 -20 33 -44z m871 -28 c44 -90 59 -170 52 -269 -8 -98 -68 -259 -97 -259
-14 0 -59 98 -81 175 -26 96 -22 186 11 285 25 71 59 140 71 140 4 0 24 -33
44 -72z"/>
</g>
</svg>
